<svg xmlns="http://www.w3.org/2000/svg" viewBox="0 0 128 128">
  <defs>
    <linearGradient id="bg" x1="18" y1="12" x2="110" y2="116" gradientUnits="userSpaceOnUse">
      <stop stop-color="#4f6bed"/>
      <stop offset="0.58" stop-color="#1989fa"/>
      <stop offset="1" stop-color="#18a058"/>
    </linearGradient>
    <linearGradient id="card" x1="40" y1="23" x2="84" y2="104" gradientUnits="userSpaceOnUse">
      <stop stop-color="#ffffff"/>
      <stop offset="1" stop-color="#edf4ff"/>
    </linearGradient>
    <filter id="shadow" x="14" y="16" width="100" height="102" filterUnits="userSpaceOnUse" color-interpolation-filters="sRGB">
      <feDropShadow dx="0" dy="8" stdDeviation="8" flood-color="#102047" flood-opacity="0.24"/>
    </filter>
  </defs>
  <rect width="128" height="128" rx="28" fill="url(#bg)"/>
  <path d="M29 70c0-7.18 5.82-13 13-13h44c7.18 0 13 5.82 13 13v25c0 7.18-5.82 13-13 13H42c-7.18 0-13-5.82-13-13V70Z" fill="#0f2f6f" opacity="0.2"/>
  <g filter="url(#shadow)">
    <rect x="35" y="23" width="58" height="74" rx="13" fill="#c9d8ff" opacity="0.72" transform="rotate(-7 64 60)"/>
    <rect x="28" y="31" width="70" height="80" rx="15" fill="url(#card)"/>
    <path d="M76 31h7.5C91.51 31 98 37.49 98 45.5V53L76 31Z" fill="#d8e6ff"/>
    <path d="M45 51h23" stroke="#4f6bed" stroke-width="7" stroke-linecap="round"/>
    <path d="M45 67h36" stroke="#9bb2f6" stroke-width="7" stroke-linecap="round"/>
    <path d="M45 83h26" stroke="#b8c8f8" stroke-width="7" stroke-linecap="round"/>
  </g>
  <circle cx="91" cy="91" r="22" fill="#18a058"/>
  <path d="m81 91 7 7 15-17" fill="none" stroke="#fff" stroke-width="7" stroke-linecap="round" stroke-linejoin="round"/>
</svg>
